<?xml version="1.0" encoding="utf-8"?>
<!-- Generator: Adobe Illustrator 22.1.0, SVG Export Plug-In . SVG Version: 6.00 Build 0)  -->
<svg version="1.1" id="Слой_1" xmlns="http://www.w3.org/2000/svg" xmlns:xlink="http://www.w3.org/1999/xlink" x="0px" y="0px"
	 viewBox="0 0 400 108" style="enable-background:new 0 0 400 108;" xml:space="preserve">
<style type="text/css">
	.st0{fill:#5E32B8;}
</style>
<path class="st0" d="M84.4,36.9c0-6-0.2-10.8-0.4-15.2h7.6l0.4,8h0.2c3.5-5.7,8.9-9,16.5-9c11.2,0,19.7,9.5,19.7,23.6
	c0,16.7-10.2,25-21.1,25c-6.1,0-11.5-2.7-14.3-7.3h-0.2v25.3h-8.4V36.9z M92.8,49.3c0,1.2,0.2,2.4,0.4,3.5c1.5,5.9,6.6,9.9,12.7,9.9
	c8.9,0,14.1-7.3,14.1-18c0-9.3-4.9-17.3-13.8-17.3c-5.8,0-11.1,4.1-12.8,10.5c-0.3,1.1-0.6,2.3-0.6,3.5V49.3z"/>
<polygon points="179,56.7 134.4,79.6 134.4,72.9 172.3,54.1 172.3,53.9 134.4,35.1 134.4,28.4 179,51.3 "/>
<polygon points="24.5,56.7 69.1,79.6 69.1,72.9 31.2,54.1 31.2,53.9 69.1,35.1 69.1,28.4 24.5,51.3 "/>
<g>
	<path class="st0" d="M214.9,33.8c4.7,0,8.5,3.8,8.5,8.5c0,2.5-1.5,5.3-3.3,6.3c2.5,1,4.5,4.4,4.5,7.5c0,4.9-4,8.9-8.9,8.9H200V33.8
		H214.9z M214.9,47c2.3,0,4.2-2.5,4.2-4.8c0-2.4-1.9-4.7-4.2-4.7h-10.7V47H214.9z M215.7,61.2c2.6,0,4.7-2.5,4.7-5.1
		s-2.1-5.2-4.7-5.2h-11.5v10.3H215.7z"/>
	<path class="st0" d="M247.7,58l2.6,3.3c-0.5,0.6-3.4,3.8-9.5,3.8c-6.6,0-11.9-5.3-11.9-12.1c0-6.6,5.2-12,11.9-12
		c6.4,0,11.5,5.2,11.5,12c0,0.5,0,1.2-0.1,1.5h-18.9c0.8,3.7,3.8,6.4,7.6,6.4C244.9,61,246.9,58.9,247.7,58z M233.4,50.6h14.2
		c-0.5-2.8-3.4-5.3-6.9-5.3C237.1,45.3,234.2,47.6,233.4,50.6z"/>
	<path class="st0" d="M278.7,53.1c0,6.6-5,12-12.1,12c-1.7,0-3.9-0.6-6-1.6v10.7h-4.2v-33h3.4l0.5,2.5c2.3-1.5,5.4-2.7,7.6-2.7
		C273.7,41.1,278.7,46.5,278.7,53.1z M260.5,47.7v11.3c2.1,1.4,4.1,2,6.5,2c4.3,0,7.5-3.4,7.5-7.8c0-4.2-3.1-7.8-7.5-7.8
		C264.7,45.4,262.7,46.2,260.5,47.7z"/>
	<path class="st0" d="M285.8,53.1c0,4.8,3.6,7.8,7.9,7.8c5.4,0,7.5-2.9,7.5-2.8l2.7,3.4c-0.2,0.2-3.7,3.7-10.2,3.7
		c-6.6,0-12.2-5-12.2-12.1c0-7,5.5-12,12.2-12c5.4,0,8.7,2.4,8.8,2.5v4.2h-3.1l-0.6-1.4c-1.1-0.5-2.9-1-5.1-1
		C289.4,45.3,285.8,48.4,285.8,53.1z"/>
	<path class="st0" d="M315.7,65V45.2h-8.5v-4h21.2v4h-8.5V65H315.7z"/>
	<path class="st0" d="M336.9,54.6V65h-4.2V41.2h4.2v9.4h7.3c0.6-0.1,1.3-0.8,1.7-1.9l1.4-3.7c1.1-2.5,3.2-3.8,5.5-3.8l1.7,0.4v3.8
		h-1.7c-0.7,0-1.4,0.6-1.8,1.7l-1.4,3.7c-0.3,0.7-1.3,1.5-1.7,1.7c0.4,0.1,1.3,1,1.6,1.6l2.3,5.1c0.5,1.1,1.1,1.7,1.8,1.7h1.7v3.8
		l-1.7,0.4c-2.3,0-4.4-1.4-5.5-3.8l-2.3-5.1c-0.5-1-1-1.6-1.7-1.7H336.9z"/>
	<path class="st0" d="M367.6,49.8c4.2,0,6.9,0.6,9.3,1.7V50c0-3.2-2.8-4.9-5.9-4.9c-2.6,0-4,0.3-5.7,1.1l-0.3,1.7h-3.4v-4.2
		c2.9-1.7,5.2-2.6,9.4-2.6c5.9,0,10.1,3.1,10.1,9.7V65h-3.4l-0.7-3.5c-2.3,1.9-5.1,3.7-9.4,3.7c-5.1,0-8.1-3.4-8.1-7.7
		S362.6,49.8,367.6,49.8z M368.5,61.3c3.4,0,6.1-1.8,8.4-4v-2.1c-2.3-1.1-5.5-1.7-8.8-1.7c-3.2,0-4.4,2-4.4,3.9
		S365.2,61.3,368.5,61.3z"/>
</g>
</svg>
